<?xml version="1.0" standalone="no"?>
<!DOCTYPE svg PUBLIC "-//W3C//DTD SVG 20010904//EN"
 "http://www.w3.org/TR/2001/REC-SVG-20010904/DTD/svg10.dtd">
<svg version="1.0" xmlns="http://www.w3.org/2000/svg"
 width="512.000000pt" height="512.000000pt" viewBox="0 0 512.000000 512.000000"
 preserveAspectRatio="xMidYMid meet">

<g transform="translate(0.000000,512.000000) scale(0.100000,-0.100000)"
fill="#000000" stroke="none">
<path d="M2377 5109 c-1126 -80 -2067 -890 -2311 -1989 -80 -363 -80 -757 0
-1120 107 -480 334 -891 689 -1245 466 -466 1024 -711 1703 -749 l102 -6 0
640 0 640 99 0 c227 0 482 79 668 206 148 102 299 248 367 356 18 28 9 23 -51
-29 -143 -123 -264 -190 -426 -237 -180 -52 -383 -52 -562 -1 -47 14 -87 25
-90 25 -3 0 -5 432 -5 960 0 528 2 960 5 960 3 0 43 11 90 25 179 51 381 51
563 -1 159 -45 282 -114 425 -237 l72 -62 -45 65 c-66 94 -222 247 -320 312
-216 142 -456 218 -691 218 l-99 0 0 640 0 640 -37 -1 c-21 -1 -86 -5 -146
-10z"/>
<path d="M3205 2979 c-71 -98 -132 -179 -135 -179 -3 0 -99 29 -215 65 -115
35 -211 63 -212 61 -2 -1 55 -83 127 -182 71 -98 129 -181 129 -184 0 -3 -58
-86 -129 -184 -72 -99 -129 -181 -127 -182 1 -2 97 26 212 61 116 36 212 65
215 65 3 0 64 -81 135 -179 l130 -180 5 232 5 232 203 64 c111 36 202 68 202
71 0 3 -91 35 -202 71 l-203 64 -5 232 -5 232 -130 -180z"/>
</g>
</svg>
