<?xml version="1.0" standalone="no"?>
<!DOCTYPE svg PUBLIC "-//W3C//DTD SVG 20010904//EN"
 "http://www.w3.org/TR/2001/REC-SVG-20010904/DTD/svg10.dtd">
<svg version="1.0" xmlns="http://www.w3.org/2000/svg"
 width="512.000000pt" height="512.000000pt" viewBox="0 0 512.000000 512.000000"
 preserveAspectRatio="xMidYMid meet">

<g transform="translate(0.000000,512.000000) scale(0.100000,-0.100000)"
fill="#000000" stroke="none">
<path d="M2545 3198 c-3 -40 -5 -116 -3 -168 4 -86 4 -83 6 38 1 80 6 132 12
132 6 0 11 -52 12 -132 2 -121 2 -124 6 -38 4 109 -6 240 -18 240 -5 0 -11
-33 -15 -72z"/>
<path d="M2414 3233 c-4 -15 -2 -45 5 -67 7 -23 16 -58 20 -79 5 -21 11 -41
15 -44 9 -10 -4 57 -20 100 -8 20 -14 52 -13 70 l1 32 8 -30 c4 -16 17 -52 29
-78 13 -30 21 -71 22 -105 0 -47 36 -181 38 -146 1 6 -6 31 -14 54 -8 23 -15
68 -15 99 0 39 -8 73 -25 109 -14 30 -25 67 -25 83 0 36 -17 38 -26 2z"/>
<path d="M2681 3234 c-15 -19 -21 -41 -21 -76 0 -30 -10 -75 -26 -115 -15 -36
-30 -89 -34 -117 -6 -39 -8 -44 -10 -21 -3 25 -4 23 -10 -15 l-7 -45 -1 39
c-2 45 -11 42 -22 -6 -8 -33 -8 -32 -10 12 l-2 45 -10 -43 c-5 -24 -11 -42
-14 -40 -2 3 -13 29 -24 59 -11 30 -18 43 -15 29 3 -14 8 -41 10 -60 l5 -35
-10 30 c-6 17 -17 59 -25 95 -7 36 -14 54 -14 40 -1 -14 6 -52 14 -84 10 -38
12 -63 6 -74 -8 -15 -11 -13 -20 11 -15 39 -13 47 4 17 8 -14 14 -21 15 -17 0
11 -150 340 -161 351 -27 29 -15 -22 43 -181 36 -98 66 -189 66 -202 l1 -23
-25 22 c-29 28 -33 51 -4 25 11 -10 20 -14 20 -8 0 5 -12 20 -26 34 -15 13
-40 52 -56 86 -18 37 -50 80 -79 107 -28 26 -49 54 -49 66 0 11 -4 20 -10 20
-5 0 -10 -15 -10 -34 0 -25 10 -45 40 -79 22 -25 53 -74 68 -108 16 -35 41
-78 55 -95 56 -67 22 -40 -119 90 -80 75 -150 136 -155 136 -22 0 -1 -26 127
-164 74 -80 133 -146 129 -146 -19 0 -96 48 -136 85 -26 25 -70 51 -105 64
-32 12 -67 32 -76 44 -9 12 -20 18 -25 14 -16 -16 24 -63 74 -87 28 -14 76
-48 105 -76 50 -47 105 -85 125 -84 4 1 -5 8 -20 16 -38 21 -27 30 11 10 33
-17 54 -40 27 -30 -17 7 -17 -15 0 -29 6 -5 2 -6 -8 -3 -10 3 -24 6 -30 7 -7
0 -4 4 6 7 12 5 -40 29 -168 76 -166 61 -218 74 -189 47 11 -11 340 -161 351
-161 4 1 -3 7 -17 15 -14 8 -19 14 -10 14 8 0 26 -6 40 -13 l25 -14 -38 -7
c-44 -8 -89 -1 -175 27 -45 15 -76 19 -111 15 -31 -4 -57 -1 -74 8 -36 19 -43
2 -11 -24 19 -15 41 -21 76 -21 30 0 75 -10 115 -26 36 -15 89 -30 117 -34 39
-6 44 -8 21 -10 -25 -3 -23 -4 15 -10 l45 -7 -40 -3 -40 -2 40 -13 40 -13 -45
-2 -45 -2 43 -10 c24 -5 42 -11 40 -14 -3 -2 -29 -13 -59 -24 -30 -11 -43 -18
-29 -15 14 3 41 8 60 10 l35 5 -30 -10 c-16 -6 -59 -17 -95 -25 -36 -7 -54
-14 -40 -14 14 -1 52 6 84 14 38 10 63 12 74 6 15 -8 13 -11 -11 -20 -39 -15
-47 -13 -17 4 14 8 22 14 17 15 -11 0 -340 -150 -351 -161 -29 -27 23 -15 181
43 98 36 189 66 202 66 23 1 23 1 5 -19 -10 -12 -28 -26 -39 -31 -17 -9 -16
-7 4 16 14 14 20 26 14 26 -5 0 -20 -12 -34 -26 -13 -15 -52 -40 -86 -56 -37
-18 -80 -50 -107 -79 -26 -28 -54 -49 -66 -49 -11 0 -20 -4 -20 -10 0 -5 15
-10 34 -10 25 0 45 10 79 40 25 22 74 53 108 68 35 16 78 41 95 55 67 56 40
22 -90 -119 -128 -138 -149 -164 -127 -164 5 0 75 61 155 136 80 74 146 133
146 129 0 -19 -48 -96 -85 -136 -25 -26 -51 -70 -64 -105 -12 -32 -32 -67 -44
-76 -12 -9 -18 -20 -14 -25 16 -16 63 24 87 74 14 28 48 76 76 105 47 50 85
105 84 125 -1 4 -8 -5 -16 -20 -21 -38 -30 -27 -10 11 17 33 40 54 30 27 -7
-17 15 -17 29 0 5 6 6 2 3 -8 -3 -10 -6 -24 -7 -30 0 -7 -4 -4 -7 6 -5 12 -29
-40 -76 -168 -61 -166 -74 -218 -47 -189 11 11 161 340 161 351 -1 5 -7 -3
-15 -17 -8 -14 -14 -19 -14 -10 0 8 6 26 13 40 l14 25 7 -38 c8 -44 1 -89 -27
-175 -15 -45 -19 -76 -15 -111 4 -31 1 -57 -8 -74 -17 -33 -4 -43 21 -16 12
14 20 44 25 93 4 42 16 91 28 115 12 23 26 68 30 99 6 40 9 48 11 27 3 -25 4
-23 10 15 l7 45 1 -39 c2 -45 11 -42 22 6 8 33 8 32 10 -12 l2 -45 10 43 c5
24 11 42 14 40 2 -3 13 -29 24 -59 11 -30 18 -43 15 -29 -3 14 -8 41 -11 60
-4 32 -3 31 11 -10 9 -25 18 -83 20 -130 2 -47 11 -102 19 -122 9 -21 16 -52
15 -70 l-1 -33 -8 30 c-4 17 -17 52 -29 78 -13 30 -21 71 -22 105 0 47 -36
181 -38 146 -1 -6 6 -31 14 -54 8 -23 15 -68 15 -99 0 -39 8 -73 25 -109 14
-30 25 -67 25 -83 0 -31 14 -39 24 -13 10 27 7 63 -10 102 -8 21 -17 75 -19
122 -1 47 -8 98 -14 114 -12 30 -5 75 9 60 4 -5 11 -20 14 -34 l7 -25 -15 25
c-9 14 -15 21 -16 17 0 -11 150 -340 161 -351 27 -29 15 22 -43 181 -36 98
-66 189 -66 202 l-1 23 25 -22 c29 -28 33 -51 4 -25 -11 10 -20 14 -20 8 0 -5
12 -20 26 -34 15 -13 40 -52 56 -86 18 -37 50 -80 79 -107 28 -26 49 -54 49
-66 0 -11 5 -20 10 -20 6 0 10 15 10 34 0 25 -10 45 -40 79 -22 25 -53 74 -68
108 -16 35 -41 78 -55 95 -56 67 -22 40 119 -90 138 -128 164 -149 164 -127 0
5 -61 75 -136 155 -74 80 -133 146 -129 146 19 0 96 -49 136 -85 28 -26 70
-51 108 -65 34 -13 67 -32 72 -43 8 -13 14 -16 21 -9 18 18 -19 61 -70 83 -25
11 -71 44 -102 73 -31 29 -70 61 -87 70 -40 20 -58 21 -20 0 38 -21 27 -30
-11 -10 -33 17 -54 40 -27 30 17 -7 17 16 0 28 -20 15 21 6 60 -13 37 -18 29
-19 -27 -3 -63 19 6 -11 170 -71 163 -60 216 -73 186 -46 -11 11 -340 161
-351 161 -5 -1 3 -7 17 -16 l25 -15 -25 7 c-51 13 -56 22 -17 29 44 8 89 1
175 -27 45 -15 76 -19 111 -15 31 4 57 1 74 -8 36 -19 43 -2 11 24 -19 15 -41
21 -76 21 -30 0 -75 10 -115 26 -36 15 -89 30 -117 34 -39 6 -44 8 -21 10 25
3 23 4 -15 10 l-45 7 38 1 c46 2 41 21 -6 24 -27 1 -25 2 13 8 28 4 36 8 20 9
-14 1 -34 6 -45 10 -16 6 -8 12 40 30 33 11 49 19 35 16 -14 -3 -41 -8 -60
-10 l-35 -5 30 10 c17 6 59 17 95 25 36 7 54 14 40 14 -14 1 -51 -6 -83 -14
-65 -17 -105 -10 -66 11 13 7 29 13 34 13 6 0 -1 -6 -15 -14 -14 -8 -21 -14
-17 -15 11 0 340 150 351 161 29 27 -22 15 -181 -43 -98 -36 -189 -66 -203
-66 -24 -1 -24 0 10 29 38 32 32 40 -7 9 -14 -11 -30 -20 -36 -20 -23 0 106
89 154 106 29 11 71 36 94 56 55 49 65 48 25 -1 -34 -44 -131 -98 -152 -85 -7
4 -10 4 -6 -1 9 -9 -9 -35 -24 -35 -6 0 -4 8 3 18 13 15 12 16 -4 3 -9 -8 -15
-16 -12 -19 3 -3 -5 -16 -17 -29 -12 -13 -17 -23 -11 -23 5 0 20 12 34 26 13
15 52 40 86 56 37 18 80 50 107 79 26 28 54 49 66 49 11 0 20 5 20 10 0 6 -15
10 -34 10 -25 0 -45 -10 -79 -40 -25 -22 -74 -53 -108 -68 -35 -16 -78 -41
-95 -55 -68 -57 -40 -21 90 118 127 136 149 165 127 165 -5 0 -75 -61 -155
-136 -80 -74 -146 -133 -146 -129 0 19 49 96 85 136 38 40 95 158 87 181 -1 4
4 5 12 2 17 -7 31 12 16 21 -19 12 -61 -25 -81 -73 -11 -25 -44 -71 -73 -102
-29 -31 -61 -70 -70 -87 -20 -40 -21 -58 0 -20 21 38 30 27 10 -11 -17 -33
-40 -54 -30 -27 7 17 -15 17 -29 0 -5 -6 -6 -2 -3 8 3 10 6 24 7 30 0 7 4 4 7
-6 5 -12 29 40 76 168 61 166 74 218 47 189 -11 -11 -161 -340 -161 -351 1 -5
7 3 15 17 8 14 14 19 14 10 0 -8 -6 -26 -13 -40 l-14 -25 -7 38 c-8 44 -1 89
27 175 15 45 19 76 15 111 -4 31 -1 57 8 74 19 36 2 43 -24 11z m13 -5 c-3 -6
-7 -48 -8 -92 -1 -55 -8 -93 -19 -113 -9 -18 -20 -67 -25 -110 -9 -79 -9 -79
-12 -24 l-3 55 -6 -42 c-10 -62 -19 -62 -13 -1 4 49 12 79 47 168 8 19 14 57
15 83 0 44 13 87 26 87 3 0 2 -5 -2 -11z m-330 -171 c37 -81 64 -152 61 -158
-4 -6 -1 -25 5 -41 7 -16 10 -32 8 -35 -4 -3 -98 239 -146 376 -15 43 12 -11
72 -142z m404 -22 c-50 -134 -64 -163 -70 -145 -6 16 8 57 59 170 37 81 69
147 70 145 2 -1 -25 -78 -59 -170z m-467 -60 c11 -26 17 -51 13 -58 -4 -6 -3
-8 4 -4 12 7 44 -33 36 -46 -3 -4 4 -20 15 -34 12 -15 21 -31 21 -37 0 -23
-89 106 -106 154 -10 28 -38 73 -61 101 -24 27 -43 53 -43 58 0 21 103 -94
121 -134z m604 83 c-14 -34 -42 -80 -64 -104 -22 -24 -54 -71 -71 -105 -17
-34 -34 -60 -36 -57 -3 3 4 23 15 44 10 22 19 48 18 58 -1 11 3 20 10 20 6 0
15 4 20 9 5 5 3 6 -4 2 -26 -15 -12 10 21 36 18 15 48 56 66 92 19 36 37 66
41 66 4 0 -3 -27 -16 -61z m-648 -178 c56 -52 100 -97 98 -100 -3 -2 -22 11
-43 30 l-37 34 40 -43 c21 -23 35 -42 29 -42 -8 0 -107 103 -244 255 l-45 50
50 -45 c28 -25 96 -88 152 -139z m762 131 c-24 -26 -86 -93 -138 -149 -52 -57
-97 -101 -100 -98 -2 3 13 24 35 48 l39 42 -49 -45 c-27 -25 -47 -39 -45 -32
4 11 288 281 298 282 2 0 -16 -21 -40 -48z m-951 -110 c29 -11 73 -39 97 -61
24 -22 71 -54 105 -71 34 -17 60 -34 57 -36 -3 -3 -23 4 -44 15 -22 10 -48 19
-58 18 -11 -1 -20 3 -20 10 0 6 -4 15 -9 20 -5 5 -6 3 -2 -4 15 -27 -13 -11
-37 21 -15 19 -55 48 -90 66 -35 17 -69 41 -76 53 -13 21 -13 21 5 5 10 -9 43
-25 72 -36z m608 -91 c22 -10 58 -35 79 -56 108 -109 107 -279 -3 -389 -68
-69 -154 -96 -244 -76 -242 51 -305 367 -100 499 84 53 178 61 268 22z m-583
-47 c127 -47 154 -60 136 -66 -16 -6 -57 8 -168 58 -80 37 -148 69 -151 72 -6
6 -14 9 183 -64z m1097 53 c-14 -6 -77 -36 -140 -65 -63 -30 -131 -55 -150
-57 -19 -2 -46 -6 -60 -11 -70 -20 6 13 171 75 167 63 243 88 179 58z m-1207
-131 c55 -1 93 -8 113 -19 18 -9 67 -20 110 -25 79 -9 79 -9 24 -12 l-55 -3
42 -6 c62 -10 62 -19 1 -13 -49 4 -79 12 -168 47 -19 8 -58 14 -86 15 -30 0
-58 6 -70 16 -10 8 -13 12 -6 9 8 -4 51 -8 95 -9z m1012 -193 c22 -8 56 -21
75 -28 19 -8 58 -14 86 -15 30 0 58 -6 70 -16 10 -8 13 -12 6 -9 -8 4 -51 8
-95 9 -55 1 -93 8 -113 19 -18 9 -67 20 -110 25 -79 9 -79 9 -24 12 l55 3 -42
6 c-24 4 -45 10 -48 13 -11 10 101 -5 140 -19z m-697 -58 c-7 -7 -381 -146
-384 -142 -7 7 296 136 309 131 9 -3 24 -1 34 5 18 10 51 15 41 6z m774 -78
c75 -34 135 -63 134 -65 -2 -1 -68 22 -147 52 -79 31 -137 55 -129 56 10 0 6
6 -10 16 -43 26 6 7 152 -59z m-797 -11 c-31 -25 -79 -53 -107 -63 -27 -9 -72
-37 -100 -60 -27 -24 -54 -43 -58 -43 -19 0 98 107 130 120 19 7 47 22 62 32
16 11 32 16 38 13 6 -4 24 5 41 19 17 14 35 26 41 26 6 0 -15 -20 -47 -44z
m563 25 c21 -11 47 -19 57 -18 11 1 20 -3 20 -10 0 -6 4 -15 9 -20 5 -5 6 -3
2 5 -15 25 10 11 36 -22 15 -18 56 -48 90 -65 35 -18 70 -42 77 -54 13 -21 13
-21 -5 -5 -10 9 -43 25 -72 36 -29 11 -73 39 -97 61 -24 22 -71 54 -104 71
-34 16 -61 32 -61 35 0 8 10 6 48 -14z m-529 -59 l-34 -37 43 40 c23 21 42 35
42 29 0 -8 -128 -131 -255 -244 l-50 -45 45 50 c136 151 234 254 239 250 2 -3
-11 -22 -30 -43z m571 -54 c52 -57 115 -125 140 -153 l45 -50 -50 45 c-150
135 -254 234 -250 239 3 2 22 -11 43 -30 l37 -34 -40 43 c-21 23 -35 42 -29
42 5 0 52 -46 104 -102z m-509 25 c-10 -22 -19 -48 -18 -58 1 -11 -3 -20 -10
-20 -6 0 -15 -4 -20 -9 -5 -5 -3 -6 5 -2 25 15 11 -10 -22 -36 -18 -15 -48
-56 -65 -90 -18 -35 -42 -70 -54 -77 -21 -13 -21 -13 -5 5 9 10 25 43 36 72
11 29 39 73 61 97 22 24 54 71 71 105 17 34 34 60 36 57 3 -3 -4 -23 -15 -44z
m466 -115 c9 -27 37 -72 60 -100 58 -67 54 -77 -7 -18 -52 50 -97 131 -84 152
4 6 3 8 -4 4 -12 -7 -44 33 -36 46 3 4 -4 20 -15 34 -12 15 -21 31 -21 37 0
22 90 -108 107 -155z m-77 -63 c38 -103 69 -190 67 -191 -6 -7 -131 282 -133
309 -1 18 -5 43 -9 57 -5 14 -5 23 -2 20 4 -4 38 -91 77 -195z m-261 105 c1
19 5 41 10 48 18 30 -3 -97 -27 -158 -14 -36 -28 -95 -32 -132 -3 -37 -12 -73
-19 -80 -11 -11 -12 -10 -6 0 4 8 8 51 9 95 1 55 8 93 19 114 10 18 21 67 25
110 l7 78 6 -55 c4 -40 6 -45 8 -20z m-136 -150 c-38 -82 -69 -147 -70 -146
-2 1 25 78 59 170 49 133 64 163 70 146 6 -17 -9 -59 -59 -170z"/>
<path d="M2706 2925 c-9 -26 -7 -32 5 -12 6 10 9 21 6 23 -2 3 -7 -2 -11 -11z"/>
<path d="M2320 2896 c0 -2 8 -10 18 -17 15 -13 16 -12 3 4 -13 16 -21 21 -21
13z"/>
<path d="M2420 2654 c-17 -11 -19 -13 -5 -9 59 19 83 18 109 -8 17 -17 26 -21
26 -12 0 39 -83 58 -130 29z"/>
<path d="M2603 2660 c-21 -9 -40 -46 -29 -57 3 -4 6 1 6 10 0 39 64 56 125 32
l20 -8 -20 16 c-22 18 -67 21 -102 7z"/>
<path d="M2411 2616 c-8 -10 -9 -16 -1 -21 9 -6 14 1 11 18 0 4 3 7 8 7 13 0
21 -38 8 -43 -6 -2 9 -3 34 -2 38 1 44 4 41 21 -5 26 -19 39 -19 17 0 -10 5
-21 11 -25 7 -5 7 -8 -2 -8 -8 0 -16 9 -19 20 -3 11 -11 20 -18 20 -8 0 -20 2
-28 5 -7 3 -19 -1 -26 -9z"/>
<path d="M2619 2626 c-1 -3 -2 -9 -3 -13 -1 -5 -5 -13 -9 -20 -8 -12 10 -29
20 -19 4 3 1 6 -7 6 -9 0 -10 3 -1 13 6 8 7 18 3 22 -4 5 -1 5 6 1 6 -4 12
-14 12 -23 0 -10 6 -14 20 -10 11 3 20 1 20 -4 0 -5 9 -1 20 8 14 13 17 20 8
30 -6 7 -16 13 -22 13 -8 0 -7 -3 1 -8 7 -4 9 -13 4 -21 -7 -11 -10 -11 -17 1
-9 16 -53 34 -55 24z"/>
<path d="M2648 2563 c7 -3 16 -2 19 1 4 3 -2 6 -13 5 -11 0 -14 -3 -6 -6z"/>
<path d="M2536 2545 c-9 -26 -7 -32 5 -12 6 10 9 21 6 23 -2 3 -7 -2 -11 -11z"/>
<path d="M2503 2497 c2 -6 18 -12 36 -13 38 -2 35 3 -8 16 -24 7 -31 6 -28 -3z"/>
<path d="M2596 2500 c-15 -5 -16 -9 -7 -14 7 -5 18 -3 24 3 14 14 6 20 -17 11z"/>
<path d="M2538 2453 c12 -2 32 -2 45 0 12 2 2 4 -23 4 -25 0 -35 -2 -22 -4z"/>
<path d="M2533 2408 c11 -10 23 -18 27 -18 4 0 16 8 27 18 10 9 14 14 9 10 -6
-5 -22 -8 -36 -8 -14 0 -30 3 -36 8 -5 4 -1 -1 9 -10z"/>
<path d="M2190 2710 c8 -5 20 -10 25 -10 6 0 3 5 -5 10 -8 5 -19 10 -25 10 -5
0 -3 -5 5 -10z"/>
<path d="M2770 2246 c0 -2 8 -10 18 -17 15 -13 16 -12 3 4 -13 16 -21 21 -21
13z"/>
<path d="M2406 2205 c-9 -26 -7 -32 5 -12 6 10 9 21 6 23 -2 3 -7 -2 -11 -11z"/>
<path d="M3141 2695 c-18 -8 -43 -15 -55 -15 -11 0 -28 -5 -36 -10 -21 -14 43
-3 93 16 20 8 52 14 70 13 l32 -1 -30 -8 c-16 -4 -52 -17 -78 -29 -30 -13 -71
-21 -105 -22 -47 0 -181 -36 -146 -38 6 -1 31 6 54 14 23 8 68 15 99 15 39 0
73 8 109 25 30 14 67 25 83 25 31 0 39 14 13 24 -26 10 -67 6 -103 -9z"/>
<path d="M1888 2573 c-48 -5 -50 -23 -3 -23 19 0 35 4 35 10 0 5 56 11 133 13
l132 3 -130 0 c-71 0 -147 -1 -167 -3z"/>
<path d="M3068 2573 c76 -2 132 -8 132 -13 0 -6 16 -10 35 -10 19 0 35 4 35 9
0 13 -93 21 -220 19 l-115 -2 133 -3z"/>
<path d="M1993 2543 c37 -2 96 -2 130 0 34 2 4 3 -68 3 -71 0 -99 -1 -62 -3z"/>
<path d="M3003 2543 c37 -2 96 -2 130 0 34 2 4 3 -68 3 -71 0 -99 -1 -62 -3z"/>
<path d="M2180 2505 c-19 -7 -62 -14 -95 -14 -42 -1 -76 -9 -113 -26 -30 -14
-67 -25 -83 -25 -16 0 -29 -4 -29 -10 0 -17 53 -23 94 -11 23 7 58 16 79 20
21 5 41 11 44 15 10 9 -57 -4 -100 -20 -20 -8 -52 -14 -70 -13 l-32 1 30 8
c17 4 52 17 78 29 30 13 71 21 105 22 31 0 80 9 107 19 28 10 43 18 35 18 -8
0 -31 -6 -50 -13z"/>
<path d="M2545 2018 c1 -149 6 -181 22 -165 3 4 7 78 8 165 1 118 1 125 -2 30
-2 -71 -8 -128 -13 -128 -5 0 -11 57 -13 128 -3 95 -3 88 -2 -30z"/>
</g>
</svg>
