<?xml version="1.0" standalone="no"?>
<!DOCTYPE svg PUBLIC "-//W3C//DTD SVG 20010904//EN"
 "http://www.w3.org/TR/2001/REC-SVG-20010904/DTD/svg10.dtd">
<svg version="1.0" xmlns="http://www.w3.org/2000/svg"
 width="512.000000pt" height="512.000000pt" viewBox="0 0 512.000000 512.000000"
 preserveAspectRatio="xMidYMid meet">

<g transform="translate(0.000000,512.000000) scale(0.100000,-0.100000)"
fill="#000000" stroke="none">
<path d="M2310 5109 c-102 -11 -278 -42 -375 -66 l-70 -18 -3 -355 -2 -355
350 350 c318 318 350 347 350 320 0 -26 -53 -83 -415 -445 l-415 -415 0 428
c0 235 -2 427 -5 427 -3 0 -47 -16 -97 -35 -105 -41 -292 -133 -388 -192 l-65
-40 -3 -434 -2 -434 -236 235 -235 235 -64 -70 c-36 -38 -65 -74 -65 -80 0 -5
71 -81 157 -167 l158 -158 -272 0 -272 0 -36 -67 c-62 -117 -122 -255 -164
-376 l-40 -117 532 0 532 0 -360 -360 -360 -360 -170 0 -170 0 295 295 295
295 -315 -2 -314 -3 -13 -60 c-65 -314 -68 -666 -8 -989 130 -705 547 -1316
1165 -1710 98 -63 349 -185 474 -231 134 -49 333 -99 496 -124 624 -95 1273
49 1796 399 500 335 877 846 1039 1412 311 1080 -106 2224 -1039 2848 -423
283 -933 433 -1451 429 -71 -1 -168 -6 -215 -10z m73 -961 l-178 -178 178 0
177 0 0 -65 0 -65 -412 0 -413 0 410 410 410 410 3 -167 3 -167 -178 -178z
m1337 -284 l23 -66 41 6 c23 4 56 9 75 13 l35 6 -20 -25 c-10 -14 -32 -42 -48
-62 l-28 -36 47 -55 c26 -31 45 -58 43 -60 -2 -3 -36 1 -76 9 l-71 14 -27 -70
c-15 -38 -31 -65 -34 -61 -4 4 -15 31 -24 58 -25 77 -22 75 -103 60 -40 -6
-73 -10 -73 -8 0 3 20 28 45 56 25 29 45 56 45 61 0 5 -21 34 -47 64 l-47 55
39 -6 c22 -4 58 -10 80 -13 l40 -6 25 66 c13 36 27 66 30 66 4 0 17 -30 30
-66z m-1160 -649 l0 -65 -177 0 -178 0 178 -178 c165 -165 178 -181 175 -211
-3 -31 -10 -24 -278 244 l-275 275 278 0 277 0 0 -65z m-470 -310 l345 -345
-165 0 -165 0 -122 122 -123 123 0 -123 0 -122 -65 0 -65 0 0 345 c0 190 3
345 8 345 4 0 162 -155 352 -345z m2262 264 c22 -69 23 -70 53 -65 16 3 50 9
75 12 50 8 51 14 -13 -67 l-37 -45 50 -59 c27 -32 48 -60 47 -61 -1 -2 -20 1
-42 6 -22 4 -56 11 -76 14 l-36 6 -28 -72 -28 -72 -23 59 c-13 33 -23 66 -23
74 -1 9 -9 12 -30 8 -15 -3 -52 -9 -82 -13 l-53 -7 51 58 51 59 -19 26 c-10
14 -31 40 -47 59 l-27 34 45 -6 c25 -3 59 -9 76 -12 30 -7 31 -6 58 64 15 39
29 71 31 71 2 0 14 -32 27 -71z m-3182 -394 l0 -215 -65 0 -65 0 0 122 0 123
-123 -123 c-101 -101 -127 -122 -152 -122 -27 0 -12 18 185 215 118 118 216
215 217 215 2 0 3 -97 3 -215z m2019 26 c1 -10 9 -12 34 -7 17 4 52 10 77 13
l45 6 -39 -49 c-22 -27 -43 -54 -47 -60 -5 -6 12 -35 41 -70 26 -32 48 -60 46
-61 -1 -1 -19 2 -41 7 -22 4 -56 11 -77 14 l-36 7 -27 -71 c-15 -39 -29 -70
-31 -68 -2 2 -14 33 -26 68 -26 72 -19 69 -123 55 l-59 -8 51 59 51 59 -25 30
c-13 17 -34 43 -45 59 l-22 29 45 -6 c24 -3 58 -9 75 -13 30 -6 33 -4 44 32 7
22 20 55 28 74 l15 35 23 -60 c13 -33 23 -66 23 -74z m-1571 -1314 l43 -123
126 23 c70 13 128 21 131 19 2 -3 -33 -50 -78 -105 -51 -64 -78 -106 -74 -114
5 -6 43 -53 86 -103 43 -51 78 -94 78 -97 0 -2 -46 4 -102 15 -57 10 -119 21
-138 24 l-35 5 -34 -88 c-60 -154 -62 -158 -71 -142 -5 7 -26 61 -46 119 -20
58 -38 107 -40 109 -2 2 -62 -6 -135 -18 -73 -12 -133 -20 -135 -19 -1 2 35
46 81 98 46 52 84 101 84 109 1 7 -29 50 -67 95 -108 131 -103 120 -62 113 19
-4 81 -15 137 -25 l102 -19 47 123 c26 68 50 124 53 124 3 0 26 -55 49 -123z
m2124 -383 c2 -1 35 3 73 11 39 7 72 11 74 9 2 -1 -17 -27 -43 -57 -25 -30
-46 -57 -46 -60 0 -3 20 -29 45 -58 25 -29 43 -55 40 -57 -2 -2 -34 1 -71 7
-37 7 -70 8 -74 4 -4 -4 -17 -34 -30 -66 -12 -32 -26 -55 -30 -50 -4 4 -15 31
-25 58 -10 28 -22 54 -26 59 -4 5 -37 3 -74 -3 -37 -7 -69 -11 -70 -9 -2 2 16
27 41 57 24 29 44 56 44 60 0 3 -20 31 -45 61 -24 30 -43 55 -42 56 2 2 85
-12 125 -21 19 -5 25 1 37 30 8 19 22 52 31 73 l16 37 24 -69 c13 -38 25 -70
26 -72z"/>
<path d="M953 4552 l-83 -67 83 -83 82 -83 3 76 c2 41 2 108 0 149 l-3 74 -82
-66z"/>
<path d="M481 4054 c-29 -42 -51 -77 -48 -80 2 -3 61 -3 131 -2 l127 3 -78 77
-78 77 -54 -75z"/>
</g>
</svg>
