<?xml version="1.0" standalone="no"?>
<!DOCTYPE svg PUBLIC "-//W3C//DTD SVG 20010904//EN"
 "http://www.w3.org/TR/2001/REC-SVG-20010904/DTD/svg10.dtd">
<svg version="1.0" xmlns="http://www.w3.org/2000/svg"
 width="512.000000pt" height="512.000000pt" viewBox="0 0 512.000000 512.000000"
 preserveAspectRatio="xMidYMid meet">

<g transform="translate(0.000000,512.000000) scale(0.100000,-0.100000)"
fill="#000000" stroke="none">
<path d="M2400 5114 c-420 -39 -707 -120 -1038 -294 -392 -206 -754 -547 -988
-930 -55 -91 -163 -308 -198 -397 l-16 -43 2400 0 2400 0 -16 43 c-37 99 -178
370 -243 467 -203 305 -481 579 -777 765 -347 218 -742 349 -1159 385 -112 9
-285 11 -365 4z"/>
<path d="M176 1628 c9 -24 45 -101 79 -173 336 -707 995 -1229 1761 -1395 466
-101 979 -67 1420 95 146 53 403 183 532 269 306 203 589 497 778 806 55 91
163 308 198 398 l16 42 -2400 0 -2400 0 16 -42z"/>
</g>
</svg>
