<?xml version="1.0" standalone="no"?>
<!DOCTYPE svg PUBLIC "-//W3C//DTD SVG 20010904//EN"
 "http://www.w3.org/TR/2001/REC-SVG-20010904/DTD/svg10.dtd">
<svg version="1.0" xmlns="http://www.w3.org/2000/svg"
 width="512.000000pt" height="512.000000pt" viewBox="0 0 512.000000 512.000000"
 preserveAspectRatio="xMidYMid meet">

<g transform="translate(0.000000,512.000000) scale(0.100000,-0.100000)"
fill="#000000" stroke="none">
<path d="M2419 5109 c-612 -31 -1214 -298 -1653 -734 -243 -241 -428 -514
-557 -820 l-38 -90 57 -6 57 -6 -63 -1 c-73 -2 -64 11 -118 -177 -63 -216
-104 -500 -104 -715 0 -257 62 -624 141 -835 l20 -55 1037 1 c885 1 1027 3
972 14 -356 72 -631 343 -705 697 -19 89 -19 267 0 356 111 528 653 837 1162
663 100 -35 211 -97 278 -156 l50 -45 -55 24 c-202 87 -458 71 -650 -41 -36
-21 -101 -74 -146 -118 -66 -66 -89 -97 -127 -175 -62 -127 -80 -201 -80 -330
0 -129 18 -203 80 -330 81 -165 236 -297 418 -357 155 -50 358 -41 503 23 64
28 60 19 -17 -40 -111 -86 -263 -153 -393 -175 -32 -5 436 -9 1208 -10 l1261
-1 11 25 c25 55 84 275 107 402 69 372 53 758 -45 1130 -17 62 -40 138 -51
168 l-20 55 -62 2 -62 2 57 3 57 4 -14 39 c-24 69 -122 267 -176 357 -155 260
-363 501 -593 687 -402 327 -947 541 -1431 562 -66 2 -133 6 -150 7 -16 2 -91
0 -166 -4z m802 -2184 c24 -69 49 -125 56 -125 6 0 62 25 124 55 62 30 114 53
116 51 2 -2 -21 -57 -52 -121 -30 -65 -55 -121 -55 -124 0 -4 56 -26 125 -51
69 -24 125 -47 125 -50 0 -3 -56 -26 -125 -50 -69 -25 -125 -47 -125 -51 0 -3
25 -59 55 -124 31 -64 54 -119 52 -121 -2 -2 -54 21 -116 51 -62 30 -118 55
-124 55 -7 0 -32 -57 -56 -126 -24 -69 -47 -122 -52 -117 -4 4 -26 59 -48 121
-22 63 -42 116 -45 120 -3 3 -61 -20 -127 -52 -67 -31 -123 -55 -125 -54 -1 2
24 59 57 127 32 68 58 125 57 126 -2 1 -60 22 -130 46 -71 24 -128 46 -128 49
0 3 57 25 128 49 70 24 128 45 130 46 1 1 -25 58 -57 126 -33 68 -58 125 -57
127 2 1 58 -23 125 -54 66 -32 124 -55 127 -52 3 4 23 57 45 119 39 109 47
129 53 129 2 0 23 -56 47 -125z"/>
</g>
</svg>
