<?xml version="1.0" standalone="no"?>
<!DOCTYPE svg PUBLIC "-//W3C//DTD SVG 20010904//EN"
 "http://www.w3.org/TR/2001/REC-SVG-20010904/DTD/svg10.dtd">
<svg version="1.0" xmlns="http://www.w3.org/2000/svg"
 width="512.000000pt" height="512.000000pt" viewBox="0 0 512.000000 512.000000"
 preserveAspectRatio="xMidYMid meet">

<g transform="translate(0.000000,512.000000) scale(0.100000,-0.100000)"
fill="#000000" stroke="none">
<path d="M2330 5109 c-372 -33 -799 -174 -1103 -365 l-58 -36 313 -210 c172
-115 319 -215 326 -222 11 -11 -59 -50 -392 -222 -223 -115 -406 -211 -406
-214 0 -3 183 -99 406 -214 223 -115 402 -212 397 -216 -4 -5 -183 -99 -398
-210 -214 -111 -393 -205 -398 -209 -4 -4 175 -102 398 -217 222 -115 405
-211 405 -214 0 -3 -183 -99 -406 -214 -222 -115 -401 -213 -397 -217 4 -4
184 -98 398 -209 215 -111 394 -205 398 -209 4 -5 -174 -102 -397 -217 -223
-115 -406 -211 -406 -214 0 -3 183 -99 406 -214 333 -171 403 -211 392 -222
-7 -7 -154 -107 -326 -222 l-313 -210 58 -36 c162 -102 418 -215 615 -271 451
-130 904 -137 1364 -20 179 46 300 92 489 185 274 135 489 293 705 516 191
197 333 400 455 649 156 317 231 600 257 962 24 336 -30 722 -147 1039 -55
150 -185 405 -271 534 -200 300 -476 570 -770 755 -472 297 -1038 433 -1594
384z"/>
</g>
</svg>
