<?xml version="1.0" standalone="no"?>
<!DOCTYPE svg PUBLIC "-//W3C//DTD SVG 20010904//EN"
 "http://www.w3.org/TR/2001/REC-SVG-20010904/DTD/svg10.dtd">
<svg version="1.0" xmlns="http://www.w3.org/2000/svg"
 width="512.000000pt" height="512.000000pt" viewBox="0 0 512.000000 512.000000"
 preserveAspectRatio="xMidYMid meet">

<g transform="translate(0.000000,512.000000) scale(0.100000,-0.100000)"
fill="#000000" stroke="none">
<path d="M2367 5109 c-427 -30 -850 -175 -1212 -414 -913 -603 -1341 -1709
-1071 -2771 209 -824 831 -1499 1635 -1778 940 -326 1990 -77 2676 635 441
458 685 1027 720 1674 11 217 -19 507 -79 741 -210 826 -828 1497 -1638 1779
-217 76 -422 117 -663 135 -154 11 -208 11 -368 -1z"/>
</g>
</svg>
